<?xml version="1.0" encoding="UTF-8" standalone="no"?><!DOCTYPE svg PUBLIC "-//W3C//DTD SVG 1.1//EN" "http://www.w3.org/Graphics/SVG/1.1/DTD/svg11.dtd"><svg width="100%" height="100%" viewBox="0 0 24 24" version="1.1" xmlns="http://www.w3.org/2000/svg" xmlns:xlink="http://www.w3.org/1999/xlink" xml:space="preserve" xmlns:serif="http://www.serif.com/" style="fill-rule:evenodd;clip-rule:evenodd;stroke-linejoin:round;stroke-miterlimit:2;"><path d="M9.002,4.175l4.343,-2.13l-0,3.955l4.033,-0.304l-0,2.434l-4.033,0c-0.017,0.223 -0.001,8.368 -0,9.432c0.001,0.65 0.889,1.217 1.551,1.217c0.775,0 3.102,-1.217 3.102,-1.217l0.931,1.522c-0,-0 -2.741,1.774 -4.033,2.129c-1.195,0.329 -2.017,0.761 -3.723,0c-1.073,-0.478 -2.144,-1.582 -2.171,-2.738c-0.052,-2.231 -0,-10.649 -0,-10.649l-1.862,0.304l-0.31,-1.825l2.172,-0.305l-0,-1.825Z" style="fill:#828282;"/></svg>